<?xml version="1.0" encoding="UTF-8" standalone="no"?>
<!-- Created with Inkscape (http://www.inkscape.org/) -->

<svg
   width="55mm"
   height="20mm"
   version="1.1"
   id="svg1"
   xml:space="preserve"
   inkscape:version="1.4.2 (ebf0e94, 2025-05-08)"
   sodipodi:docname="Figur 19 - Kald med forretningstjenester.svg"
   xmlns:inkscape="http://www.inkscape.org/namespaces/inkscape"
   xmlns:sodipodi="http://sodipodi.sourceforge.net/DTD/sodipodi-0.dtd"
   xmlns="http://www.w3.org/2000/svg"
   xmlns:svg="http://www.w3.org/2000/svg"><sodipodi:namedview
     id="namedview1"
     pagecolor="#ffffff"
     bordercolor="#666666"
     borderopacity="1.0"
     inkscape:showpageshadow="2"
     inkscape:pageopacity="0.0"
     inkscape:pagecheckerboard="0"
     inkscape:deskcolor="#d1d1d1"
     inkscape:document-units="mm"
     inkscape:zoom="1.3095539"
     inkscape:cx="416.93587"
     inkscape:cy="134.77872"
     inkscape:window-width="1920"
     inkscape:window-height="974"
     inkscape:window-x="-11"
     inkscape:window-y="-11"
     inkscape:window-maximized="1"
     inkscape:current-layer="layer1" /><defs
     id="defs1"><inkscape:path-effect
       effect="spiro"
       id="path-effect31"
       is_visible="true"
       lpeversion="1" /><inkscape:path-effect
       effect="spiro"
       id="path-effect28"
       is_visible="true"
       lpeversion="1" /><inkscape:path-effect
       effect="spiro"
       id="path-effect26"
       is_visible="true"
       lpeversion="1" /><inkscape:path-effect
       effect="spiro"
       id="path-effect24"
       is_visible="true"
       lpeversion="1" /><inkscape:path-effect
       effect="spiro"
       id="path-effect22"
       is_visible="true"
       lpeversion="1" /><inkscape:path-effect
       effect="spiro"
       id="path-effect20"
       is_visible="true"
       lpeversion="1" /><marker
       style="overflow:visible"
       id="DartArrow"
       refX="0"
       refY="0"
       orient="auto-start-reverse"
       inkscape:stockid="Dart arrow"
       markerWidth="3"
       markerHeight="3"
       viewBox="0 0 1 1"
       inkscape:isstock="true"
       inkscape:collect="always"
       preserveAspectRatio="xMidYMid"><path
         style="fill:context-stroke;fill-rule:evenodd;stroke:none"
         d="M 0,0 5,-5 -12.5,0 5,5 Z"
         transform="scale(-0.5)"
         id="path10" /></marker><inkscape:path-effect
       effect="spiro"
       id="path-effect9"
       is_visible="true"
       lpeversion="1" /><inkscape:path-effect
       effect="spiro"
       id="path-effect8"
       is_visible="true"
       lpeversion="1" /><inkscape:path-effect
       effect="spiro"
       id="path-effect6"
       is_visible="true"
       lpeversion="1" /><inkscape:path-effect
       effect="spiro"
       id="path-effect4"
       is_visible="true"
       lpeversion="1" /><inkscape:path-effect
       effect="spiro"
       id="path-effect3"
       is_visible="true"
       lpeversion="1" /></defs><g
     inkscape:label="Lag 1"
     inkscape:groupmode="layer"
     id="layer1"><rect
       style="fill:#ffffff;stroke-width:0.25;stroke-linecap:round;paint-order:markers stroke fill"
       id="rect1"
       width="211.94081"
       height="102.83877"
       x="-0.60612398"
       y="-2.0204082" /><ellipse
       style="fill:none;stroke:#000000;stroke-width:0.5;stroke-linecap:square"
       id="path2"
       cx="14.647959"
       cy="25.356121"
       rx="1.7013611"
       ry="2.0044222" /><path
       style="fill:none;fill-rule:evenodd;stroke:#000000;stroke-width:0.5;stroke-linecap:butt;stroke-linejoin:miter;stroke-opacity:1"
       d="m 22.653826,35.129845 8.6625,2.929594"
       id="path3"
       inkscape:path-effect="#path-effect3"
       inkscape:original-d="m 22.653826,35.129845 c 2.8875,0.976532 5.774999,1.953062 8.6625,2.929594"
       transform="matrix(0.32185172,0.72132843,-0.94995522,0.2443913,40.691871,2.3633139)" /><path
       style="fill:none;fill-rule:evenodd;stroke:#000000;stroke-width:0.5;stroke-linecap:butt;stroke-linejoin:miter;stroke-opacity:1"
       d="m 14.536456,34.037449 3.893055,4.393084"
       id="path4"
       inkscape:path-effect="#path-effect4"
       inkscape:original-d="m 14.536456,34.037449 c 1.297685,1.464361 2.59537,2.928721 3.893055,4.393084"
       transform="translate(0.13890306,0.12798599)" /><path
       style="fill:none;fill-rule:evenodd;stroke:#000000;stroke-width:0.5;stroke-linecap:butt;stroke-linejoin:miter;stroke-opacity:1"
       d="m 14.536456,34.037449 3.893055,4.393084"
       id="path5"
       inkscape:path-effect="#path-effect6"
       inkscape:original-d="m 14.536456,34.037449 c 1.297685,1.464361 2.59537,2.928721 3.893055,4.393084"
       transform="matrix(-1,0,0,1,29.091667,0.1158145)" /><path
       style="fill:none;fill-rule:evenodd;stroke:#000000;stroke-width:0.5;stroke-linecap:butt;stroke-linejoin:miter;stroke-opacity:1"
       d="m 22.653826,35.129845 8.6625,2.929594"
       id="path6"
       inkscape:path-effect="#path-effect8"
       inkscape:original-d="m 22.653826,35.129845 c 2.8875,0.976532 5.774999,1.953062 8.6625,2.929594"
       transform="matrix(0.72132843,-0.32185172,0.2443913,0.94995522,-13.794722,3.6354169)" /><path
       style="fill:none;fill-rule:evenodd;stroke:#000000;stroke-width:0.265;stroke-linecap:butt;stroke-linejoin:miter;stroke-dasharray:none;stroke-opacity:1;marker-end:url(#DartArrow)"
       d="m 18.587755,30.912244 37.17551,0.05051"
       id="path8"
       inkscape:path-effect="#path-effect9"
       inkscape:original-d="m 18.587755,30.912244 c 12.358163,0.01683 24.766835,0.03367 37.17551,0.05051"
       transform="matrix(0.85454125,0,0,1.1459603,3.0071147,-4.518972)" /><text
       xml:space="preserve"
       style="font-size:3.88056px;line-height:125%;font-family:'Paralucent Medium';-inkscape-font-specification:Sans;text-align:center;letter-spacing:0px;word-spacing:0px;text-anchor:middle;fill:#4d69c4;fill-opacity:1;stroke:none;stroke-width:0.264583px;stroke-linecap:butt;stroke-linejoin:miter;stroke-opacity:1"
       x="76.925095"
       y="31.838558"
       id="text10"><tspan
         sodipodi:role="line"
         id="tspan10"
         style="font-size:3.88056px;fill:#4d69c4;fill-opacity:1;stroke:none;stroke-width:0.264583px"
         x="76.925095"
         y="31.838558">forretningstjeneste</tspan></text><text
       xml:space="preserve"
       style="font-size:3.88056px;line-height:125%;font-family:'Paralucent Medium';-inkscape-font-specification:Sans;text-align:center;letter-spacing:0px;word-spacing:0px;text-anchor:middle;fill:#4d69c4;fill-opacity:1;stroke:none;stroke-width:0.264583px;stroke-linecap:butt;stroke-linejoin:miter;stroke-opacity:1"
       x="64.855103"
       y="19.345407"
       id="text11"><tspan
         sodipodi:role="line"
         id="tspan11"
         style="font-size:3.88056px;fill:#4d69c4;fill-opacity:1;stroke:none;stroke-width:0.264583px"
         x="64.855103"
         y="19.345407">tjenesteudbyder A</tspan></text><rect
       style="fill:none;fill-opacity:1;stroke:#666666;stroke-width:0.5;stroke-linecap:square;stroke-dasharray:1.5,1.5;stroke-dashoffset:0"
       id="rect11"
       width="61.117344"
       height="30.104082"
       x="46.267345"
       y="14.041837"
       ry="2.164629" /><path
       sodipodi:type="star"
       style="fill:#860728;fill-opacity:1;stroke:none;stroke-width:0.499999;stroke-linecap:square;stroke-dasharray:1.5, 1.5;stroke-dashoffset:0"
       id="path13"
       inkscape:flatsided="false"
       sodipodi:sides="8"
       sodipodi:cx="57.783672"
       sodipodi:cy="-8.6877546"
       sodipodi:r1="6.4161878"
       sodipodi:r2="3.965204"
       sodipodi:arg1="0.58363582"
       sodipodi:arg2="0.9763349"
       inkscape:rounded="0.03"
       inkscape:randomized="0"
       d="m 63.137754,-5.1520404 c -0.05197,0.07869 -3.055196,-0.3035539 -3.133319,-0.25074 -0.07812,0.052814 -0.842596,2.9821634 -0.934983,3.0010607 -0.09239,0.018897 -1.945705,-2.3749949 -2.038291,-2.392891 -0.09259,-0.017896 -2.704513,1.5129028 -2.783203,1.4609377 -0.07869,-0.051965 0.303554,-3.055196 0.25074,-3.133319 -0.05281,-0.078123 -2.982163,-0.8425956 -3.001061,-0.9349828 -0.0189,-0.092387 2.374995,-1.9457047 2.392891,-2.0382911 0.0179,-0.092586 -1.512902,-2.7045131 -1.460937,-2.7832031 0.05196,-0.07869 3.055196,0.303554 3.133319,0.25074 0.07812,-0.05281 0.842595,-2.982163 0.934982,-3.001061 0.09239,-0.0189 1.945705,2.374995 2.038292,2.392891 0.09259,0.0179 2.704513,-1.512902 2.783203,-1.460937 0.07869,0.05196 -0.303554,3.055196 -0.25074,3.133319 0.05281,0.07812 2.982163,0.842595 3.00106,0.9349825 0.0189,0.092387 -2.374995,1.9457048 -2.392891,2.0382911 -0.0179,0.092586 1.512903,2.704513 1.460938,2.783203 z"
       transform="matrix(0.61130913,0.11669363,-0.11669363,0.61130913,10.788527,34.884754)" /><ellipse
       style="fill:none;stroke:#000000;stroke-width:0.5;stroke-linecap:square"
       id="ellipse13"
       cx="14.647959"
       cy="25.356121"
       rx="1.7013611"
       ry="2.0044222" /><path
       style="fill:none;fill-rule:evenodd;stroke:#000000;stroke-width:0.5;stroke-linecap:butt;stroke-linejoin:miter;stroke-opacity:1"
       d="m 22.653826,35.129845 8.6625,2.929594"
       id="path14"
       transform="matrix(0.32185172,0.72132843,-0.94995522,0.2443913,40.691871,2.3633139)"
       inkscape:original-d="m 22.653826,35.129845 c 2.8875,0.976532 5.774999,1.953062 8.6625,2.929594"
       inkscape:path-effect="#path-effect20" /><path
       style="fill:none;fill-rule:evenodd;stroke:#000000;stroke-width:0.5;stroke-linecap:butt;stroke-linejoin:miter;stroke-opacity:1"
       d="m 14.536456,34.037449 3.893055,4.393084"
       id="path15"
       transform="translate(0.13890306,0.12798599)"
       inkscape:original-d="m 14.536456,34.037449 c 1.297685,1.464361 2.59537,2.928721 3.893055,4.393084"
       inkscape:path-effect="#path-effect22" /><path
       style="fill:none;fill-rule:evenodd;stroke:#000000;stroke-width:0.5;stroke-linecap:butt;stroke-linejoin:miter;stroke-opacity:1"
       d="m 14.536456,34.037449 3.893055,4.393084"
       id="path16"
       transform="matrix(-1,0,0,1,29.091667,0.1158145)"
       inkscape:original-d="m 14.536456,34.037449 c 1.297685,1.464361 2.59537,2.928721 3.893055,4.393084"
       inkscape:path-effect="#path-effect24" /><path
       style="fill:none;fill-rule:evenodd;stroke:#000000;stroke-width:0.5;stroke-linecap:butt;stroke-linejoin:miter;stroke-opacity:1"
       d="m 22.653826,35.129845 8.6625,2.929594"
       id="path17"
       transform="matrix(0.72132843,-0.32185172,0.2443913,0.94995522,-13.794722,3.6354169)"
       inkscape:original-d="m 22.653826,35.129845 c 2.8875,0.976532 5.774999,1.953062 8.6625,2.929594"
       inkscape:path-effect="#path-effect26" /><path
       style="fill:none;fill-rule:evenodd;stroke:#000000;stroke-width:0.265;stroke-linecap:butt;stroke-linejoin:miter;stroke-dasharray:none;stroke-opacity:1;marker-end:url(#DartArrow)"
       d="m 18.587755,30.912244 37.17551,0.05051"
       id="path18"
       inkscape:path-effect="#path-effect28"
       inkscape:original-d="m 18.587755,30.912244 c 12.358163,0.01683 24.766835,0.03367 37.17551,0.05051"
       transform="matrix(0.85454125,0,0,1.1459603,3.0071147,-4.518972)" /><text
       xml:space="preserve"
       style="font-size:3.88056px;line-height:125%;font-family:'Paralucent Medium';-inkscape-font-specification:Sans;text-align:center;letter-spacing:0px;word-spacing:0px;text-anchor:middle;fill:#4d69c4;fill-opacity:1;stroke:none;stroke-width:0.264583px;stroke-linecap:butt;stroke-linejoin:miter;stroke-opacity:1"
       x="76.925095"
       y="31.838558"
       id="text18"><tspan
         sodipodi:role="line"
         id="tspan18"
         style="font-size:3.88056px;fill:#4d69c4;fill-opacity:1;stroke:none;stroke-width:0.264583px"
         x="76.925095"
         y="31.838558" /></text><text
       xml:space="preserve"
       style="font-size:3.88056px;line-height:125%;font-family:'Paralucent Medium';-inkscape-font-specification:Sans;text-align:center;letter-spacing:0px;word-spacing:0px;text-anchor:middle;fill:#4d69c4;fill-opacity:1;stroke:none;stroke-width:0.264583px;stroke-linecap:butt;stroke-linejoin:miter;stroke-opacity:1"
       x="64.855103"
       y="19.345407"
       id="text19"><tspan
         sodipodi:role="line"
         id="tspan19"
         style="font-size:3.88056px;fill:#4d69c4;fill-opacity:1;stroke:none;stroke-width:0.264583px"
         x="64.855103"
         y="19.345407">tjenesteudbyder A</tspan></text><rect
       style="fill:none;fill-opacity:1;stroke:#666666;stroke-width:0.5;stroke-linecap:square;stroke-dasharray:1.5, 1.5;stroke-dashoffset:0"
       id="rect19"
       width="61.117344"
       height="30.104082"
       x="46.267345"
       y="14.041837"
       ry="2.164629" /><path
       sodipodi:type="star"
       style="fill:#860728;fill-opacity:1;stroke:none;stroke-width:0.499999;stroke-linecap:square;stroke-dasharray:1.5, 1.5;stroke-dashoffset:0"
       id="path19"
       inkscape:flatsided="false"
       sodipodi:sides="8"
       sodipodi:cx="57.783672"
       sodipodi:cy="-8.6877546"
       sodipodi:r1="6.4161878"
       sodipodi:r2="3.965204"
       sodipodi:arg1="0.58363582"
       sodipodi:arg2="0.9763349"
       inkscape:rounded="0.03"
       inkscape:randomized="0"
       d="m 63.137754,-5.1520404 c -0.05197,0.07869 -3.055196,-0.3035539 -3.133319,-0.25074 -0.07812,0.052814 -0.842596,2.9821634 -0.934983,3.0010607 -0.09239,0.018897 -1.945705,-2.3749949 -2.038291,-2.392891 -0.09259,-0.017896 -2.704513,1.5129028 -2.783203,1.4609377 -0.07869,-0.051965 0.303554,-3.055196 0.25074,-3.133319 -0.05281,-0.078123 -2.982163,-0.8425956 -3.001061,-0.9349828 -0.0189,-0.092387 2.374995,-1.9457047 2.392891,-2.0382911 0.0179,-0.092586 -1.512902,-2.7045131 -1.460937,-2.7832031 0.05196,-0.07869 3.055196,0.303554 3.133319,0.25074 0.07812,-0.05281 0.842595,-2.982163 0.934982,-3.001061 0.09239,-0.0189 1.945705,2.374995 2.038292,2.392891 0.09259,0.0179 2.704513,-1.512902 2.783203,-1.460937 0.07869,0.05196 -0.303554,3.055196 -0.25074,3.133319 0.05281,0.07812 2.982163,0.842595 3.00106,0.9349825 0.0189,0.092387 -2.374995,1.9457048 -2.392891,2.0382911 -0.0179,0.092586 1.512903,2.704513 1.460938,2.783203 z"
       transform="matrix(0.61130913,0.11669363,-0.11669363,0.61130913,10.788527,34.884754)" /><rect
       style="fill:none;fill-opacity:1;stroke:#666666;stroke-width:0.499999;stroke-linecap:square;stroke-dasharray:none;stroke-dashoffset:0"
       id="rect28"
       width="41.144955"
       height="10.000507"
       x="56.288586"
       y="25.858463"
       ry="2.164629" /><g
       id="g30"
       transform="translate(89.958384)"><path
         style="fill:none;fill-rule:evenodd;stroke:#000000;stroke-width:0.265;stroke-linecap:butt;stroke-linejoin:miter;stroke-dasharray:none;stroke-opacity:1;marker-end:url(#DartArrow)"
         d="m 18.587755,30.912244 37.17551,0.05051"
         id="path28"
         inkscape:path-effect="#path-effect31"
         inkscape:original-d="m 18.587755,30.912244 c 12.358163,0.01683 24.766835,0.03367 37.17551,0.05051"
         transform="matrix(0.85454125,0,0,1.1459603,3.0071147,-4.518972)" /><text
         xml:space="preserve"
         style="font-size:3.88056px;line-height:125%;font-family:'Paralucent Medium';-inkscape-font-specification:Sans;text-align:center;letter-spacing:0px;word-spacing:0px;text-anchor:middle;fill:#4d69c4;fill-opacity:1;stroke:none;stroke-width:0.264583px;stroke-linecap:butt;stroke-linejoin:miter;stroke-opacity:1"
         x="76.925095"
         y="31.838558"
         id="text28"><tspan
           sodipodi:role="line"
           id="tspan28"
           style="font-size:3.88056px;fill:#4d69c4;fill-opacity:1;stroke:none;stroke-width:0.264583px"
           x="76.925095"
           y="31.838558">forretningstjeneste</tspan></text><text
         xml:space="preserve"
         style="font-size:3.88056px;line-height:125%;font-family:'Paralucent Medium';-inkscape-font-specification:Sans;text-align:center;letter-spacing:0px;word-spacing:0px;text-anchor:middle;fill:#4d69c4;fill-opacity:1;stroke:none;stroke-width:0.264583px;stroke-linecap:butt;stroke-linejoin:miter;stroke-opacity:1"
         x="64.855103"
         y="19.345407"
         id="text29"><tspan
           sodipodi:role="line"
           id="tspan29"
           style="font-size:3.88056px;fill:#4d69c4;fill-opacity:1;stroke:none;stroke-width:0.264583px"
           x="64.855103"
           y="19.345407">tjenesteudbyder B</tspan></text><rect
         style="fill:none;fill-opacity:1;stroke:#666666;stroke-width:0.5;stroke-linecap:square;stroke-dasharray:1.5, 1.5;stroke-dashoffset:0"
         id="rect29"
         width="61.117344"
         height="30.104082"
         x="46.267345"
         y="14.041837"
         ry="2.164629" /><path
         sodipodi:type="star"
         style="fill:#860728;fill-opacity:1;stroke:none;stroke-width:0.499999;stroke-linecap:square;stroke-dasharray:1.5, 1.5;stroke-dashoffset:0"
         id="path29"
         inkscape:flatsided="false"
         sodipodi:sides="8"
         sodipodi:cx="57.783672"
         sodipodi:cy="-8.6877546"
         sodipodi:r1="6.4161878"
         sodipodi:r2="3.965204"
         sodipodi:arg1="0.58363582"
         sodipodi:arg2="0.9763349"
         inkscape:rounded="0.03"
         inkscape:randomized="0"
         d="m 63.137754,-5.1520404 c -0.05197,0.07869 -3.055196,-0.3035539 -3.133319,-0.25074 -0.07812,0.052814 -0.842596,2.9821634 -0.934983,3.0010607 -0.09239,0.018897 -1.945705,-2.3749949 -2.038291,-2.392891 -0.09259,-0.017896 -2.704513,1.5129028 -2.783203,1.4609377 -0.07869,-0.051965 0.303554,-3.055196 0.25074,-3.133319 -0.05281,-0.078123 -2.982163,-0.8425956 -3.001061,-0.9349828 -0.0189,-0.092387 2.374995,-1.9457047 2.392891,-2.0382911 0.0179,-0.092586 -1.512902,-2.7045131 -1.460937,-2.7832031 0.05196,-0.07869 3.055196,0.303554 3.133319,0.25074 0.07812,-0.05281 0.842595,-2.982163 0.934982,-3.001061 0.09239,-0.0189 1.945705,2.374995 2.038292,2.392891 0.09259,0.0179 2.704513,-1.512902 2.783203,-1.460937 0.07869,0.05196 -0.303554,3.055196 -0.25074,3.133319 0.05281,0.07812 2.982163,0.842595 3.00106,0.9349825 0.0189,0.092387 -2.374995,1.9457048 -2.392891,2.0382911 -0.0179,0.092586 1.512903,2.704513 1.460938,2.783203 z"
         transform="matrix(0.61130913,0.11669363,-0.11669363,0.61130913,10.788527,34.884754)" /><rect
         style="fill:none;fill-opacity:1;stroke:#666666;stroke-width:0.499999;stroke-linecap:square;stroke-dasharray:none;stroke-dashoffset:0"
         id="rect30"
         width="41.144955"
         height="10.000507"
         x="56.288586"
         y="25.858463"
         ry="2.164629" /></g></g></svg>
